<svg xmlns="http://www.w3.org/2000/svg" viewBox="0 0 101.22 99.26">
  <path fill="#f0c96a" d="M42.95,87.02c3.17-4.46,9.31-24.2,15.71-30.2,5.46-5.12,12.33-8.21,19.81-8.21,4.64,0,9.11,1.12,13.1,3.23l-20.63-39.6c-.03-.07-.07-.13-.1-.2-.05-.09-.1-.19-.15-.28-.04-.07-.08-.15-.12-.22-.05-.09-.1-.18-.15-.27-.04-.08-.09-.15-.14-.23-.05-.08-.1-.17-.15-.25-.05-.08-.1-.16-.15-.23-.05-.08-.1-.16-.15-.24-.05-.08-.11-.16-.16-.24-.05-.07-.1-.15-.15-.22-.06-.08-.11-.16-.17-.24-.05-.07-.1-.14-.15-.21-.06-.08-.12-.16-.18-.24-.05-.07-.1-.14-.15-.21-.06-.08-.12-.16-.18-.24-.05-.07-.1-.13-.16-.2-.06-.08-.13-.15-.19-.23-.05-.07-.11-.13-.16-.2-.06-.08-.13-.15-.19-.22-.06-.07-.11-.13-.17-.2-.06-.07-.13-.14-.19-.21-.06-.07-.12-.13-.18-.2-.06-.07-.13-.14-.19-.2-.06-.07-.13-.13-.19-.2-.06-.07-.13-.13-.19-.2-.07-.07-.13-.13-.2-.2-.06-.06-.13-.12-.19-.19-.07-.07-.14-.13-.21-.2-.06-.06-.13-.12-.19-.18-.07-.07-.15-.13-.22-.2-.06-.06-.13-.11-.19-.17-.08-.07-.15-.13-.23-.2-.06-.05-.13-.11-.2-.16-.08-.06-.16-.13-.23-.19-.07-.05-.13-.11-.2-.16-.08-.06-.16-.12-.24-.18-.07-.05-.14-.1-.21-.16-.08-.06-.16-.12-.24-.18-.07-.05-.15-.1-.22-.16-.08-.06-.16-.11-.23-.16-.08-.05-.16-.11-.23-.16-.08-.05-.15-.1-.23-.15-.08-.05-.17-.11-.25-.16-.07-.05-.14-.09-.22-.14-.09-.06-.18-.11-.28-.17-.07-.04-.13-.08-.2-.12-.1-.06-.2-.12-.3-.17-.06-.03-.12-.07-.18-.1-.11-.06-.22-.12-.33-.18-.05-.03-.1-.05-.15-.08,0,0-.01,0-.01,0-.11-.06-.23-.12-.34-.17-.05-.03-.11-.05-.16-.08-.11-.05-.22-.11-.34-.16-.06-.03-.11-.05-.17-.08-.1-.05-.21-.09-.32-.14-.07-.03-.13-.06-.2-.09-.09-.04-.19-.08-.29-.12-.08-.03-.16-.07-.23-.1-.08-.03-.17-.07-.25-.1-.09-.03-.18-.07-.27-.1-.08-.03-.15-.05-.23-.08-.1-.04-.2-.07-.3-.11-.07-.02-.14-.05-.21-.07-.11-.04-.21-.07-.32-.11,0,0-.01,0-.02,0-.07-.02-.13-.04-.2-.06-.11-.03-.21-.07-.32-.1-.08-.02-.15-.04-.23-.06-.1-.03-.2-.06-.31-.08-.08-.02-.17-.04-.25-.06-.1-.02-.19-.05-.29-.07-.09-.02-.18-.04-.27-.06-.09-.02-.18-.04-.28-.06-.09-.02-.19-.04-.28-.06-.09-.02-.18-.04-.27-.05-.1-.02-.19-.03-.29-.05-.09-.01-.17-.03-.26-.04-.1-.02-.2-.03-.3-.04-.08-.01-.17-.03-.25-.04-.1-.01-.2-.03-.3-.04-.08-.01-.17-.02-.25-.03-.1-.01-.2-.02-.3-.03-.08,0-.17-.02-.25-.02-.1,0-.2-.02-.3-.02-.09,0-.17-.01-.26-.02-.1,0-.2-.01-.29-.01-.09,0-.17,0-.26-.01-.1,0-.19,0-.29,0-.09,0-.18,0-.27,0-.09,0-.19,0-.28,0s-.19,0-.28,0c-.09,0-.18,0-.27,0-.1,0-.19,0-.29,0-.09,0-.17,0-.26.01-.1,0-.2,0-.29.01-.09,0-.17.01-.26.02-.1,0-.2.01-.3.02-.08,0-.17.02-.25.02-.1,0-.2.02-.3.03-.08,0-.17.02-.25.03-.1.01-.2.02-.3.04-.08.01-.17.02-.25.04-.1.01-.2.03-.3.04-.09.01-.17.03-.26.04-.1.02-.19.03-.29.05-.09.02-.18.03-.27.05-.09.02-.19.04-.28.06-.09.02-.19.04-.28.06-.09.02-.18.04-.26.06-.1.02-.2.05-.29.07-.08.02-.16.04-.25.06-.1.03-.21.06-.31.09-.08.02-.15.04-.23.06-.11.03-.22.07-.33.1-.06.02-.13.04-.19.06,0,0-.01,0-.02,0-.11.03-.22.07-.33.11-.07.02-.14.04-.2.07-.1.04-.21.07-.31.11-.07.03-.15.05-.22.08-.09.04-.19.07-.28.11-.08.03-.16.06-.24.09-.08.03-.17.07-.25.1-.09.04-.18.07-.27.11-.07.03-.14.06-.21.09-.1.04-.2.09-.3.13-.06.03-.12.06-.18.09-.11.05-.22.1-.33.15-.06.03-.11.06-.17.09-.11.06-.22.11-.33.17,0,0-.01,0-.02,0-.05.03-.1.06-.16.08-.11.06-.21.11-.32.17-.06.03-.13.07-.19.11-.1.06-.2.11-.3.17-.07.04-.14.08-.2.12-.09.05-.18.11-.27.16-.07.05-.15.09-.22.14-.08.05-.17.11-.25.16-.08.05-.15.1-.23.15-.08.05-.16.1-.23.16-.08.05-.16.11-.23.16-.07.05-.15.1-.22.16-.08.06-.16.12-.24.18-.07.05-.14.1-.21.16-.08.06-.16.12-.24.18-.07.05-.14.11-.2.16-.08.06-.15.13-.23.19-.07.05-.13.11-.2.16-.08.06-.15.13-.22.19-.07.06-.13.11-.2.17-.07.06-.14.13-.22.2-.07.06-.13.12-.2.18-.07.06-.14.13-.21.2-.07.06-.13.13-.2.19-.07.06-.13.13-.2.2-.07.07-.13.13-.2.2-.06.06-.12.13-.19.2-.07.07-.13.14-.2.21-.06.06-.12.13-.18.19-.07.07-.13.14-.2.22-.06.06-.11.13-.17.19-.07.08-.13.15-.19.23-.05.06-.11.13-.16.2-.06.08-.13.16-.19.23-.05.07-.1.13-.16.2-.06.08-.13.16-.19.24-.05.07-.1.14-.15.2-.06.08-.12.16-.18.24-.05.07-.1.14-.15.21-.06.08-.11.16-.17.24-.05.07-.1.15-.15.22-.05.08-.11.16-.16.24-.05.08-.1.16-.15.24-.05.08-.1.16-.15.23-.05.08-.1.17-.15.25-.05.08-.09.15-.14.23-.05.09-.1.18-.15.27-.04.07-.08.14-.12.22-.05.1-.1.19-.15.29-.03.06-.07.13-.1.19l-.02.04s0,0,0,0L2.57,65.99c-2.79,5.35-3.34,11.6-1.52,17.35,1.81,5.76,5.84,10.56,11.19,13.35,3.28,1.71,6.89,2.57,10.51,2.57,2.3,0,4.61-.35,6.84-1.05,5.76-1.81,10.56-5.84,13.35-11.19"/>
  <circle fill="#0090d6" cx="78.47" cy="76.43" r="22.76"/>
</svg>
